<svg id="visual" viewBox="0 0 900 600" width="900" height="600" xmlns="http://www.w3.org/2000/svg" xmlns:xlink="http://www.w3.org/1999/xlink" version="1.1"><rect x="0" y="0" width="900" height="600" fill="#FEECE9"></rect><defs><linearGradient id="grad1_0" x1="33.3%" y1="0%" x2="100%" y2="100%"><stop offset="20%" stop-color="#fe7e6d" stop-opacity="1"></stop><stop offset="80%" stop-color="#fe7e6d" stop-opacity="1"></stop></linearGradient></defs><defs><linearGradient id="grad1_1" x1="33.3%" y1="0%" x2="100%" y2="100%"><stop offset="20%" stop-color="#fe7e6d" stop-opacity="1"></stop><stop offset="80%" stop-color="#feece9" stop-opacity="1"></stop></linearGradient></defs><defs><linearGradient id="grad2_0" x1="0%" y1="0%" x2="66.7%" y2="100%"><stop offset="20%" stop-color="#fe7e6d" stop-opacity="1"></stop><stop offset="80%" stop-color="#fe7e6d" stop-opacity="1"></stop></linearGradient></defs><defs><linearGradient id="grad2_1" x1="0%" y1="0%" x2="66.7%" y2="100%"><stop offset="20%" stop-color="#feece9" stop-opacity="1"></stop><stop offset="80%" stop-color="#fe7e6d" stop-opacity="1"></stop></linearGradient></defs><g transform="translate(900, 0)"><path d="M0 216.3C-21.3 197.7 -42.7 179.1 -71.2 171.8C-99.7 164.5 -135.4 168.5 -153 153C-170.5 137.4 -169.9 102.2 -177.4 73.5C-184.9 44.7 -200.6 22.4 -216.3 0L0 0Z" fill="#ffb6aa"></path><path d="M0 108.2C-10.7 98.9 -21.3 89.6 -35.6 85.9C-49.9 82.3 -67.7 84.3 -76.5 76.5C-85.3 68.7 -84.9 51.1 -88.7 36.7C-92.5 22.4 -100.3 11.2 -108.2 0L0 0Z" fill="#fe7e6d"></path></g><g transform="translate(0, 600)"><path d="M0 -216.3C23.9 -200.1 47.8 -183.9 71.6 -172.8C95.4 -161.6 119.1 -155.6 142.1 -142.1C165.2 -128.6 187.6 -107.7 199.9 -82.8C212.1 -57.9 214.2 -28.9 216.3 0L0 0Z" fill="#ffb6aa"></path><path d="M0 -108.2C11.9 -100.1 23.9 -91.9 35.8 -86.4C47.7 -80.8 59.5 -77.8 71.1 -71.1C82.6 -64.3 93.8 -53.9 99.9 -41.4C106.1 -28.9 107.1 -14.5 108.2 0L0 0Z" fill="#fe7e6d"></path></g></svg>