<svg id="visual" viewBox="0 0 960 540" width="960" height="540" xmlns="http://www.w3.org/2000/svg" xmlns:xlink="http://www.w3.org/1999/xlink" version="1.1"><rect x="0" y="0" width="960" height="540" fill="#2F3A8F"></rect><path d="M0 233L26.7 236C53.3 239 106.7 245 160 255.7C213.3 266.3 266.7 281.7 320 292.5C373.3 303.3 426.7 309.7 480 298.2C533.3 286.7 586.7 257.3 640 251.3C693.3 245.3 746.7 262.7 800 275.2C853.3 287.7 906.7 295.3 933.3 299.2L960 303L960 541L933.3 541C906.7 541 853.3 541 800 541C746.7 541 693.3 541 640 541C586.7 541 533.3 541 480 541C426.7 541 373.3 541 320 541C266.7 541 213.3 541 160 541C106.7 541 53.3 541 26.7 541L0 541Z" fill="#fe7e6d"></path><path d="M0 378L26.7 371.8C53.3 365.7 106.7 353.3 160 345.2C213.3 337 266.7 333 320 324.8C373.3 316.7 426.7 304.3 480 302.8C533.3 301.3 586.7 310.7 640 319.5C693.3 328.3 746.7 336.7 800 346.7C853.3 356.7 906.7 368.3 933.3 374.2L960 380L960 541L933.3 541C906.7 541 853.3 541 800 541C746.7 541 693.3 541 640 541C586.7 541 533.3 541 480 541C426.7 541 373.3 541 320 541C266.7 541 213.3 541 160 541C106.7 541 53.3 541 26.7 541L0 541Z" fill="#c74e78"></path><path d="M0 350L26.7 363.5C53.3 377 106.7 404 160 406.7C213.3 409.3 266.7 387.7 320 386.5C373.3 385.3 426.7 404.7 480 417.3C533.3 430 586.7 436 640 431.7C693.3 427.3 746.7 412.7 800 402.2C853.3 391.7 906.7 385.3 933.3 382.2L960 379L960 541L933.3 541C906.7 541 853.3 541 800 541C746.7 541 693.3 541 640 541C586.7 541 533.3 541 480 541C426.7 541 373.3 541 320 541C266.7 541 213.3 541 160 541C106.7 541 53.3 541 26.7 541L0 541Z" fill="#7b3376"></path><path d="M0 478L26.7 481.3C53.3 484.7 106.7 491.3 160 487.5C213.3 483.7 266.7 469.3 320 467.2C373.3 465 426.7 475 480 475.8C533.3 476.7 586.7 468.3 640 466.3C693.3 464.3 746.7 468.7 800 467.5C853.3 466.3 906.7 459.7 933.3 456.3L960 453L960 541L933.3 541C906.7 541 853.3 541 800 541C746.7 541 693.3 541 640 541C586.7 541 533.3 541 480 541C426.7 541 373.3 541 320 541C266.7 541 213.3 541 160 541C106.7 541 53.3 541 26.7 541L0 541Z" fill="#1b2361"></path></svg>